P1
5 5
10001
00000
00100
00000
10001
