P2
4 7
255
255 255 255 255
170 170 170 170
 85  85  85  85
  0   0   0   0
255 255 255 255
255 255 255 255
255 255 255 255
