P2
4 7
63
63 63 63 63
42 42 42 42
21 21 21 21
 0  0  0  0
63 63 63 63
63 63 63 63
63 63 63 63
