P2
4 7
65535
65535 65535 65535 65535
43690 43690 43690 43690
21845 21845 21845 21845
    0     0     0     0
65535 65535 65535 65535
65535 65535 65535 65535
65535 65535 65535 65535
