P3
8 6
255
255 0 0 255 0 0 255 0 0 255 0 0 255 0 0 255 0 0 255 0 0 255 0 0
0 255 0 0 255 0 0 255 0 0 255 0 0 255 0 0 255 0 0 255 0 0 255 0
0 0 255 0 0 255 0 0 255 0 0 255 0 0 255 0 0 255 0 0 255 0 0 255
255 255 0 255 255 0 255 255 0 255 255 0 255 170 0 255 170 0 255 170 0 255 170 0
255 0 255 255 0 255 255 0 255 255 0 255 170 0 255 170 0 255 170 0 255 170 0 255
0 255 255 0 255 255 0 255 255 0 255 255 0 255 170 0 255 170 0 255 170 0 255 170
