P3
8 6
63
63 0 0 63 0 0 63 0 0 63 0 0 63 0 0 63 0 0 63 0 0 63 0 0
0 63 0 0 63 0 0 63 0 0 63 0 0 63 0 0 63 0 0 63 0 0 63 0
0 0 63 0 0 63 0 0 63 0 0 63 0 0 63 0 0 63 0 0 63 0 0 63
63 63 0 63 63 0 63 63 0 63 63 0  63 42 0 63 42 0 63 42 0 63 42 0
63 0 63 63 0 63 63 0 63 63 0 63  42 0 63 42 0 63 42 0 63 42 0 63
0 63 63 0 63 63 0 63 63 0 63 63  0 63 42 0 63 42 0 63 42 0 63 42
