P3
8 6
65535
65535 0 0 65535 0 0 65535 0 0 65535 0 0 65535 0 0 65535 0 0 65535 0 0 65535 0 0
0 65535 0 0 65535 0 0 65535 0 0 65535 0 0 65535 0 0 65535 0 0 65535 0 0 65535 0
0 0 65535 0 0 65535 0 0 65535 0 0 65535 0 0 65535 0 0 65535 0 0 65535 0 0 65535
65535 65535 0 65535 65535 0 65535 65535 0 65535 65535 0  65535 43690 0 65535 43690 0 65535 43690 0 65535 43690 0
65535 0 65535 65535 0 65535 65535 0 65535 65535 0 65535  43690 0 65535 43690 0 65535 43690 0 65535 43690 0 65535
0 65535 65535 0 65535 65535 0 65535 65535 0 65535 65535  0 65535 43690 0 65535 43690 0 65535 43690 0 65535 43690
